<?xml version="1.0" standalone="no"?>
<!DOCTYPE svg PUBLIC "-//W3C//DTD SVG 20010904//EN"
 "http://www.w3.org/TR/2001/REC-SVG-20010904/DTD/svg10.dtd">
<svg version="1.0" xmlns="http://www.w3.org/2000/svg"
 width="700.000000pt" height="700.000000pt" viewBox="0 0 700.000000 700.000000"
 preserveAspectRatio="xMidYMid meet">
<metadata>
Created by potrace 1.11, written by Peter Selinger 2001-2013
</metadata>
<g transform="translate(0.000000,700.000000) scale(0.100000,-0.100000)"
fill="#000000" stroke="none">
<path d="M3359 6695 c-48 -7 -123 -28 -167 -45 -96 -37 -2183 -1226 -2271
-1295 -152 -116 -265 -295 -318 -501 -17 -64 -18 -160 -18 -1354 0 -1194 1
-1290 18 -1354 52 -204 155 -369 305 -489 67 -54 2111 -1230 2240 -1289 208
-95 481 -96 692 -4 77 33 2064 1164 2180 1240 172 114 297 280 358 477 41 134
43 207 40 1484 -4 1085 -6 1227 -20 1286 -53 218 -181 410 -350 526 -91 63
-2086 1204 -2186 1250 -151 71 -336 96 -503 68z m232 -586 c61 -21 2119 -1202
2156 -1238 20 -19 46 -58 60 -87 l23 -51 -2 -1244 -3 -1244 -22 -40 c-12 -22
-39 -57 -60 -77 -39 -38 -2075 -1208 -2147 -1234 -49 -18 -143 -18 -192 0 -71
25 -2107 1196 -2148 1234 -21 20 -49 60 -62 87 l-24 50 0 1235 0 1235 24 51
c13 28 40 66 59 85 35 34 2091 1216 2152 1237 41 14 144 15 186 1z"/>
</g>
</svg>
